<svg width="121" height="24" viewBox="0 0 121 24" fill="none" xmlns="http://www.w3.org/2000/svg">
<path d="M6.19318 18.1591C7.69318 18.1591 8.72727 17.6023 9.57955 16.608H9.63636L9.79545 18H11.1477V12.0455H6.46023V13.4943H9.42614C9.36364 15.2955 8.09659 16.5568 6.19318 16.5568C4.14773 16.5568 2.64773 15.0057 2.64773 12.1761C2.64773 9.35227 4.20455 7.80682 6.17614 7.80682C7.71591 7.80682 8.85795 8.65341 9.26705 10.0398H11.0682C10.6761 7.77273 8.67614 6.20455 6.15909 6.20455C3.15341 6.20455 0.903409 8.47159 0.903409 12.1875C0.903409 15.8693 3.04545 18.1591 6.19318 18.1591ZM16.8878 18.1761C18.7912 18.1761 20.1378 17.2386 20.5241 15.8182L18.9162 15.5284C18.6094 16.3523 17.8707 16.7727 16.9048 16.7727C15.4503 16.7727 14.473 15.8295 14.4276 14.1477H20.6321V13.5455C20.6321 10.392 18.7457 9.15909 16.7685 9.15909C14.3366 9.15909 12.7344 11.0114 12.7344 13.6932C12.7344 16.4034 14.3139 18.1761 16.8878 18.1761ZM14.4332 12.875C14.5014 11.6364 15.3991 10.5625 16.7798 10.5625C18.098 10.5625 18.9616 11.5398 18.9673 12.875H14.4332ZM26.5909 9.27273H24.8011V7.18182H23.1023V9.27273H21.8239V10.6364H23.1023V15.7898C23.0966 17.375 24.3068 18.142 25.6477 18.1136C26.1875 18.108 26.5511 18.0057 26.75 17.9318L26.4432 16.5284C26.3295 16.5511 26.1193 16.6023 25.8466 16.6023C25.2955 16.6023 24.8011 16.4205 24.8011 15.4375V10.6364H26.5909V9.27273ZM39.2443 11.4034C38.892 10.0455 37.8295 9.15909 35.9432 9.15909C33.9716 9.15909 32.5739 10.1989 32.5739 11.7443C32.5739 12.983 33.3239 13.8068 34.9602 14.1705L36.4375 14.4943C37.2784 14.6818 37.6705 15.0568 37.6705 15.6023C37.6705 16.2784 36.9489 16.8068 35.8352 16.8068C34.8182 16.8068 34.1648 16.3693 33.9602 15.5114L32.3182 15.7614C32.6023 17.3068 33.8864 18.1761 35.8466 18.1761C37.9545 18.1761 39.4148 17.0568 39.4148 15.4773C39.4148 14.2443 38.6307 13.483 37.0284 13.1136L35.642 12.7955C34.6818 12.5682 34.267 12.2443 34.2727 11.6534C34.267 10.983 34.9943 10.5057 35.9602 10.5057C37.017 10.5057 37.5057 11.0909 37.7045 11.6761L39.2443 11.4034ZM45.3565 9.27273H43.5668V7.18182H41.8679V9.27273H40.5895V10.6364H41.8679V15.7898C41.8622 17.375 43.0724 18.142 44.4134 18.1136C44.9531 18.108 45.3168 18.0057 45.5156 17.9318L45.2088 16.5284C45.0952 16.5511 44.8849 16.6023 44.6122 16.6023C44.0611 16.6023 43.5668 16.4205 43.5668 15.4375V10.6364H45.3565V9.27273ZM50.4091 18.1705C52 18.1705 52.625 17.1989 52.9318 16.642H53.0739V18H54.733V9.27273H53.0341V10.6875H52.9318C52.625 10.1477 52.0455 9.15909 50.4205 9.15909C48.3125 9.15909 46.7614 10.8239 46.7614 13.6534C46.7614 16.4773 48.2898 18.1705 50.4091 18.1705ZM50.7841 16.7216C49.267 16.7216 48.4773 15.3864 48.4773 13.6364C48.4773 11.9034 49.25 10.6023 50.7841 10.6023C52.267 10.6023 53.0625 11.8125 53.0625 13.6364C53.0625 15.4716 52.25 16.7216 50.7841 16.7216ZM57.1577 18H58.8565V12.6705C58.8565 11.5341 59.7372 10.7102 60.9134 10.7102C61.2429 10.7102 61.4986 10.7784 61.7031 10.8807L62.2486 9.46023C61.9588 9.26705 61.5838 9.14205 61.1065 9.14205C60.0724 9.14205 59.2088 9.72159 58.8906 10.6591H58.7997V9.27273H57.1577V18ZM68.0909 9.27273H66.3011V7.18182H64.6023V9.27273H63.3239V10.6364H64.6023V15.7898C64.5966 17.375 65.8068 18.142 67.1477 18.1136C67.6875 18.108 68.0511 18.0057 68.25 17.9318L67.9432 16.5284C67.8295 16.5511 67.6193 16.6023 67.3466 16.6023C66.7955 16.6023 66.3011 16.4205 66.3011 15.4375V10.6364H68.0909V9.27273ZM73.6378 18.1761C75.5412 18.1761 76.8878 17.2386 77.2741 15.8182L75.6662 15.5284C75.3594 16.3523 74.6207 16.7727 73.6548 16.7727C72.2003 16.7727 71.223 15.8295 71.1776 14.1477H77.3821V13.5455C77.3821 10.392 75.4957 9.15909 73.5185 9.15909C71.0866 9.15909 69.4844 11.0114 69.4844 13.6932C69.4844 16.4034 71.0639 18.1761 73.6378 18.1761ZM71.1832 12.875C71.2514 11.6364 72.1491 10.5625 73.5298 10.5625C74.848 10.5625 75.7116 11.5398 75.7173 12.875H71.1832ZM82.5341 18.1705C84.125 18.1705 84.75 17.1989 85.0568 16.642H85.1989V18H86.858V6.36364H85.1591V10.6875H85.0568C84.75 10.1477 84.1705 9.15909 82.5455 9.15909C80.4375 9.15909 78.8864 10.8239 78.8864 13.6534C78.8864 16.4773 80.4148 18.1705 82.5341 18.1705ZM82.9091 16.7216C81.392 16.7216 80.6023 15.3864 80.6023 13.6364C80.6023 11.9034 81.375 10.6023 82.9091 10.6023C84.392 10.6023 85.1875 11.8125 85.1875 13.6364C85.1875 15.4716 84.375 16.7216 82.9091 16.7216Z" fill="#8C30F5"/>
<path d="M112.293 6.70711C111.903 6.31658 111.903 5.68342 112.293 5.29289C112.684 4.90237 113.317 4.90237 113.707 5.29289L119.707 11.2929C120.098 11.6834 120.098 12.3166 119.707 12.7071L113.707 18.7071C113.317 19.0976 112.684 19.0976 112.293 18.7071C111.903 18.3166 111.903 17.6834 112.293 17.2929L116.586 13H99.011C98.4527 13 98 12.5523 98 12C98 11.4477 98.4527 11 99.011 11H116.586L112.293 6.70711Z" fill="#8C30F5"/>
</svg>
