<svg width="138" height="56" viewBox="0 0 138 56" fill="none" xmlns="http://www.w3.org/2000/svg">
<path d="M0 8C0 3.58172 3.58172 0 8 0H130C134.418 0 138 3.58172 138 8V48C138 52.4183 134.418 56 130 56H8C3.58172 56 0 52.4183 0 48V8Z" fill="#7C3AED"/>
<path d="M33.1307 26.0795C33.036 25.7727 32.9053 25.4981 32.7386 25.2557C32.5758 25.0095 32.3788 24.7992 32.1477 24.625C31.9205 24.4508 31.6591 24.3201 31.3636 24.233C31.0682 24.142 30.7462 24.0966 30.3977 24.0966C29.7727 24.0966 29.2159 24.2538 28.7273 24.5682C28.2386 24.8826 27.8542 25.3447 27.5739 25.9545C27.2973 26.5606 27.1591 27.2992 27.1591 28.1705C27.1591 29.0492 27.2973 29.7936 27.5739 30.4034C27.8504 31.0133 28.2348 31.4773 28.7273 31.7955C29.2197 32.1098 29.7917 32.267 30.4432 32.267C31.0341 32.267 31.5455 32.1534 31.9773 31.9261C32.4129 31.6989 32.7481 31.3769 32.983 30.9602C33.2178 30.5398 33.3352 30.0473 33.3352 29.483L33.8125 29.5568H30.6534V27.9091H35.375V29.3068C35.375 30.303 35.1629 31.1648 34.7386 31.892C34.3144 32.6193 33.7311 33.1799 32.9886 33.5739C32.2462 33.964 31.3939 34.1591 30.4318 34.1591C29.3598 34.1591 28.4186 33.9186 27.608 33.4375C26.8011 32.9527 26.1705 32.2652 25.7159 31.375C25.2652 30.4811 25.0398 29.4205 25.0398 28.1932C25.0398 27.2538 25.1723 26.4148 25.4375 25.6761C25.7064 24.9375 26.0814 24.3106 26.5625 23.7955C27.0436 23.2765 27.608 22.8826 28.2557 22.6136C28.9034 22.3409 29.608 22.2045 30.3693 22.2045C31.0133 22.2045 31.6136 22.2992 32.1705 22.4886C32.7273 22.6742 33.2216 22.9394 33.6534 23.2841C34.089 23.6288 34.447 24.0379 34.7273 24.5114C35.0076 24.9848 35.1913 25.5076 35.2784 26.0795H33.1307ZM41.1861 34.1705C40.3111 34.1705 39.5554 33.9886 38.919 33.625C38.2865 33.2576 37.7997 32.7386 37.4588 32.0682C37.1179 31.3939 36.9474 30.6004 36.9474 29.6875C36.9474 28.7898 37.1179 28.0019 37.4588 27.3239C37.8035 26.642 38.2846 26.1117 38.902 25.733C39.5194 25.3504 40.2448 25.1591 41.0781 25.1591C41.616 25.1591 42.1236 25.2462 42.6009 25.4205C43.0819 25.5909 43.5062 25.8561 43.8736 26.2159C44.2448 26.5758 44.5365 27.0341 44.7486 27.5909C44.9607 28.1439 45.0668 28.803 45.0668 29.5682V30.1989H37.9134V28.8125H43.0952C43.0914 28.4186 43.0062 28.0682 42.8395 27.7614C42.6728 27.4508 42.4399 27.2064 42.1406 27.0284C41.8452 26.8504 41.5005 26.7614 41.1065 26.7614C40.6861 26.7614 40.3168 26.8636 39.9986 27.0682C39.6804 27.2689 39.4323 27.5341 39.2543 27.8636C39.08 28.1894 38.991 28.5473 38.9872 28.9375V30.1477C38.9872 30.6553 39.08 31.0909 39.2656 31.4545C39.4512 31.8144 39.7107 32.0909 40.044 32.2841C40.3774 32.4735 40.7675 32.5682 41.2145 32.5682C41.5137 32.5682 41.7846 32.5265 42.027 32.4432C42.2694 32.3561 42.4796 32.2292 42.6577 32.0625C42.8357 31.8958 42.9702 31.6894 43.0611 31.4432L44.9815 31.6591C44.8603 32.1667 44.6293 32.6098 44.2884 32.9886C43.9512 33.3636 43.5194 33.6553 42.9929 33.8636C42.4664 34.0682 41.8641 34.1705 41.1861 34.1705ZM51.1648 25.2727V26.8636H46.1477V25.2727H51.1648ZM47.3864 23.1818H49.4432V31.375C49.4432 31.6515 49.4848 31.8636 49.5682 32.0114C49.6553 32.1553 49.7689 32.2538 49.9091 32.3068C50.0492 32.3598 50.2045 32.3864 50.375 32.3864C50.5038 32.3864 50.6212 32.3769 50.7273 32.358C50.8371 32.339 50.9205 32.322 50.9773 32.3068L51.3239 33.9148C51.214 33.9527 51.0568 33.9943 50.8523 34.0398C50.6515 34.0852 50.4053 34.1117 50.1136 34.1193C49.5985 34.1345 49.1345 34.0568 48.7216 33.8864C48.3087 33.7121 47.9811 33.4432 47.7386 33.0795C47.5 32.7159 47.3826 32.2614 47.3864 31.7159V23.1818ZM63.2685 25.5625C63.2154 25.0663 62.992 24.6799 62.598 24.4034C62.2079 24.1269 61.7003 23.9886 61.0753 23.9886C60.6359 23.9886 60.259 24.0549 59.9446 24.1875C59.6302 24.3201 59.3897 24.5 59.223 24.7273C59.0563 24.9545 58.9711 25.214 58.9673 25.5057C58.9673 25.7481 59.0223 25.9583 59.1321 26.1364C59.2457 26.3144 59.3991 26.4659 59.5923 26.5909C59.7855 26.7121 59.9995 26.8144 60.2344 26.8977C60.4692 26.9811 60.706 27.0511 60.9446 27.108L62.0355 27.3807C62.4749 27.483 62.8973 27.6212 63.3026 27.7955C63.7116 27.9697 64.0772 28.1894 64.3991 28.4545C64.7249 28.7197 64.9825 29.0398 65.1719 29.4148C65.3613 29.7898 65.456 30.2292 65.456 30.733C65.456 31.4148 65.2817 32.0152 64.9332 32.5341C64.5848 33.0492 64.081 33.4527 63.4219 33.7443C62.7666 34.0322 61.973 34.1761 61.0412 34.1761C60.1359 34.1761 59.3499 34.036 58.6832 33.7557C58.0204 33.4754 57.5014 33.0663 57.1264 32.5284C56.7552 31.9905 56.5545 31.3352 56.5241 30.5625H58.598C58.6283 30.9678 58.7533 31.3049 58.973 31.5739C59.1927 31.8428 59.4787 32.0436 59.831 32.1761C60.187 32.3087 60.5848 32.375 61.0241 32.375C61.4825 32.375 61.884 32.3068 62.2287 32.1705C62.5772 32.0303 62.8499 31.8371 63.0469 31.5909C63.2438 31.3409 63.3442 31.0492 63.348 30.7159C63.3442 30.4129 63.2552 30.1629 63.081 29.9659C62.9067 29.7652 62.6624 29.5985 62.348 29.4659C62.0374 29.3295 61.6738 29.2083 61.2571 29.1023L59.9332 28.7614C58.9749 28.5152 58.2173 28.142 57.6605 27.642C57.1075 27.1383 56.831 26.4697 56.831 25.6364C56.831 24.9508 57.0166 24.3504 57.3878 23.8352C57.7628 23.3201 58.2723 22.9205 58.9162 22.6364C59.5601 22.3485 60.2893 22.2045 61.1037 22.2045C61.9295 22.2045 62.6529 22.3485 63.2741 22.6364C63.8991 22.9205 64.3897 23.3163 64.7457 23.8239C65.1018 24.3277 65.2855 24.9072 65.2969 25.5625H63.2685ZM71.6023 25.2727V26.8636H66.5852V25.2727H71.6023ZM67.8239 23.1818H69.8807V31.375C69.8807 31.6515 69.9223 31.8636 70.0057 32.0114C70.0928 32.1553 70.2064 32.2538 70.3466 32.3068C70.4867 32.3598 70.642 32.3864 70.8125 32.3864C70.9413 32.3864 71.0587 32.3769 71.1648 32.358C71.2746 32.339 71.358 32.322 71.4148 32.3068L71.7614 33.9148C71.6515 33.9527 71.4943 33.9943 71.2898 34.0398C71.089 34.0852 70.8428 34.1117 70.5511 34.1193C70.036 34.1345 69.572 34.0568 69.1591 33.8864C68.7462 33.7121 68.4186 33.4432 68.1761 33.0795C67.9375 32.7159 67.8201 32.2614 67.8239 31.7159V23.1818ZM75.8338 34.1761C75.2808 34.1761 74.7827 34.0777 74.3395 33.8807C73.9001 33.6799 73.5516 33.3845 73.294 32.9943C73.0402 32.6042 72.9134 32.1231 72.9134 31.5511C72.9134 31.0587 73.0043 30.6515 73.1861 30.3295C73.3679 30.0076 73.616 29.75 73.9304 29.5568C74.2448 29.3636 74.599 29.2178 74.9929 29.1193C75.3906 29.017 75.8016 28.9432 76.2259 28.8977C76.7372 28.8447 77.152 28.7973 77.4702 28.7557C77.7884 28.7102 78.0194 28.642 78.1634 28.5511C78.3111 28.4564 78.3849 28.3106 78.3849 28.1136V28.0795C78.3849 27.6515 78.258 27.3201 78.0043 27.0852C77.7505 26.8504 77.3849 26.733 76.9077 26.733C76.4039 26.733 76.0043 26.8428 75.7088 27.0625C75.4171 27.2822 75.2202 27.5417 75.1179 27.8409L73.1974 27.5682C73.349 27.0379 73.599 26.5947 73.9474 26.2386C74.2959 25.8788 74.7221 25.6098 75.2259 25.4318C75.7296 25.25 76.2865 25.1591 76.8963 25.1591C77.3168 25.1591 77.7353 25.2083 78.152 25.3068C78.5687 25.4053 78.9493 25.5682 79.294 25.7955C79.6387 26.0189 79.9152 26.3239 80.1236 26.7102C80.3357 27.0966 80.4418 27.5795 80.4418 28.1591V34H78.4645V32.8011H78.3963C78.2713 33.0436 78.0952 33.2708 77.8679 33.483C77.6444 33.6913 77.3622 33.8598 77.0213 33.9886C76.6842 34.1136 76.2884 34.1761 75.8338 34.1761ZM76.3679 32.6648C76.7808 32.6648 77.1387 32.5833 77.4418 32.4205C77.7448 32.2538 77.9777 32.0341 78.1406 31.7614C78.3073 31.4886 78.3906 31.1913 78.3906 30.8693V29.8409C78.3262 29.8939 78.2164 29.9432 78.0611 29.9886C77.9096 30.0341 77.7391 30.0739 77.5497 30.108C77.3603 30.142 77.1728 30.1723 76.9872 30.1989C76.8016 30.2254 76.6406 30.2481 76.5043 30.267C76.1974 30.3087 75.9228 30.3769 75.6804 30.4716C75.438 30.5663 75.2467 30.6989 75.1065 30.8693C74.9664 31.036 74.8963 31.2519 74.8963 31.517C74.8963 31.8958 75.0346 32.1818 75.3111 32.375C75.5876 32.5682 75.9399 32.6648 76.3679 32.6648ZM82.5099 34V25.2727H84.5043V26.7273H84.5952C84.7543 26.2235 85.027 25.8352 85.4134 25.5625C85.8035 25.286 86.2486 25.1477 86.7486 25.1477C86.8622 25.1477 86.9891 25.1534 87.1293 25.1648C87.2732 25.1723 87.3925 25.1856 87.4872 25.2045V27.0966C87.4001 27.0663 87.2618 27.0398 87.0724 27.017C86.8868 26.9905 86.7069 26.9773 86.5327 26.9773C86.1577 26.9773 85.8205 27.0587 85.5213 27.2216C85.2259 27.3807 84.9929 27.6023 84.8224 27.8864C84.652 28.1705 84.5668 28.4981 84.5668 28.8693V34H82.5099ZM93.6804 25.2727V26.8636H88.6634V25.2727H93.6804ZM89.902 23.1818H91.9588V31.375C91.9588 31.6515 92.0005 31.8636 92.0838 32.0114C92.1709 32.1553 92.2846 32.2538 92.4247 32.3068C92.5649 32.3598 92.7202 32.3864 92.8906 32.3864C93.0194 32.3864 93.1368 32.3769 93.2429 32.358C93.3527 32.339 93.4361 32.322 93.4929 32.3068L93.8395 33.9148C93.7296 33.9527 93.5724 33.9943 93.3679 34.0398C93.1671 34.0852 92.9209 34.1117 92.6293 34.1193C92.1141 34.1345 91.6501 34.0568 91.2372 33.8864C90.8243 33.7121 90.4967 33.4432 90.2543 33.0795C90.0156 32.7159 89.8982 32.2614 89.902 31.7159V23.1818ZM99.1705 34.1705C98.2955 34.1705 97.5398 33.9886 96.9034 33.625C96.2708 33.2576 95.7841 32.7386 95.4432 32.0682C95.1023 31.3939 94.9318 30.6004 94.9318 29.6875C94.9318 28.7898 95.1023 28.0019 95.4432 27.3239C95.7879 26.642 96.2689 26.1117 96.8864 25.733C97.5038 25.3504 98.2292 25.1591 99.0625 25.1591C99.6004 25.1591 100.108 25.2462 100.585 25.4205C101.066 25.5909 101.491 25.8561 101.858 26.2159C102.229 26.5758 102.521 27.0341 102.733 27.5909C102.945 28.1439 103.051 28.803 103.051 29.5682V30.1989H95.8977V28.8125H101.08C101.076 28.4186 100.991 28.0682 100.824 27.7614C100.657 27.4508 100.424 27.2064 100.125 27.0284C99.8295 26.8504 99.4848 26.7614 99.0909 26.7614C98.6705 26.7614 98.3011 26.8636 97.983 27.0682C97.6648 27.2689 97.4167 27.5341 97.2386 27.8636C97.0644 28.1894 96.9754 28.5473 96.9716 28.9375V30.1477C96.9716 30.6553 97.0644 31.0909 97.25 31.4545C97.4356 31.8144 97.6951 32.0909 98.0284 32.2841C98.3617 32.4735 98.7519 32.5682 99.1989 32.5682C99.4981 32.5682 99.7689 32.5265 100.011 32.4432C100.254 32.3561 100.464 32.2292 100.642 32.0625C100.82 31.8958 100.955 31.6894 101.045 31.4432L102.966 31.6591C102.845 32.1667 102.614 32.6098 102.273 32.9886C101.936 33.3636 101.504 33.6553 100.977 33.8636C100.451 34.0682 99.8485 34.1705 99.1705 34.1705ZM108.03 34.1534C107.344 34.1534 106.731 33.9773 106.189 33.625C105.647 33.2727 105.219 32.7614 104.905 32.0909C104.59 31.4205 104.433 30.6061 104.433 29.6477C104.433 28.678 104.592 27.8598 104.911 27.1932C105.232 26.5227 105.666 26.017 106.212 25.6761C106.757 25.3314 107.365 25.1591 108.036 25.1591C108.547 25.1591 108.967 25.2462 109.297 25.4205C109.626 25.5909 109.888 25.7973 110.081 26.0398C110.274 26.2784 110.424 26.5038 110.53 26.7159H110.615V22.3636H112.678V34H110.655V32.625H110.53C110.424 32.8371 110.27 33.0625 110.07 33.3011C109.869 33.536 109.604 33.7367 109.274 33.9034C108.945 34.0701 108.53 34.1534 108.03 34.1534ZM108.604 32.4659C109.039 32.4659 109.411 32.3485 109.717 32.1136C110.024 31.875 110.257 31.5436 110.416 31.1193C110.575 30.6951 110.655 30.2008 110.655 29.6364C110.655 29.072 110.575 28.5814 110.416 28.1648C110.261 27.7481 110.03 27.4242 109.723 27.1932C109.42 26.9621 109.047 26.8466 108.604 26.8466C108.145 26.8466 107.763 26.9659 107.456 27.2045C107.149 27.4432 106.918 27.7727 106.763 28.1932C106.607 28.6136 106.53 29.0947 106.53 29.6364C106.53 30.1818 106.607 30.6686 106.763 31.0966C106.922 31.5208 107.155 31.8561 107.462 32.1023C107.772 32.3447 108.153 32.4659 108.604 32.4659Z" fill="white"/>
</svg>
